<svg xmlns="http://www.w3.org/2000/svg" viewBox="0 0 1111.05 676.55"><defs><style>.cls-1{fill:#efefef;}.cls-2{fill:#d1d1cf;}.cls-3{fill:#148e38;}.cls-4{fill:#35a83f;}.cls-5{fill:#fdc901;}</style></defs><g id="Camada_2" data-name="Camada 2"><g id="Camada_1-2" data-name="Camada 1"><path class="cls-1" d="M308.8,675.13a3.55,3.55,0,0,1-1.06-2.62V624.57a3.51,3.51,0,0,1,1.06-2.65,3.61,3.61,0,0,1,2.62-1h32a3.6,3.6,0,0,1,2.62,1,3.33,3.33,0,0,1,1,2.51,3.14,3.14,0,0,1-1,2.41,3.7,3.7,0,0,1-2.62.92H315.1V644.9h20.32a3.65,3.65,0,0,1,2.59,1,3.44,3.44,0,0,1,0,4.89,3.69,3.69,0,0,1-2.59,1H315.1v20.82a3.71,3.71,0,0,1-6.3,2.62Z"/><path class="cls-1" d="M380.6,638.17c1.41.75,2.12,1.7,2.12,2.83a2.4,2.4,0,0,1-.07.71,2.73,2.73,0,0,1-2.83,2.26,5.38,5.38,0,0,1-1.06-.14,28,28,0,0,0-4.61-.49,13.41,13.41,0,0,0-8.21,2.33,7.48,7.48,0,0,0-3.12,6.31v20.67a3.63,3.63,0,0,1-.88,2.62,3.51,3.51,0,0,1-2.66.92,3.64,3.64,0,0,1-2.62-.88,3.55,3.55,0,0,1-.92-2.66V641a3.21,3.21,0,0,1,3.54-3.54q3.54,0,3.54,3.54v1.35a15,15,0,0,1,5.24-3.9,16,16,0,0,1,6.66-1.41A12.59,12.59,0,0,1,380.6,638.17Z"/><path class="cls-1" d="M424.71,638.38a3.55,3.55,0,0,1,1,2.62v31.58a3.59,3.59,0,0,1-1,2.59,3.49,3.49,0,0,1-2.62,1,3.49,3.49,0,0,1-3.61-3.61v-.78a15.87,15.87,0,0,1-5.38,3.51,18.88,18.88,0,0,1-15.44-.89,14.9,14.9,0,0,1-6.09-6.19,20.48,20.48,0,0,1-2.19-9.81V641a3.61,3.61,0,1,1,7.22,0v17.42q0,5.73,3.08,8.67a11.35,11.35,0,0,0,8.18,2.94,12.07,12.07,0,0,0,5.41-1.2,9.59,9.59,0,0,0,3.83-3.26,8.06,8.06,0,0,0,1.38-4.6V641a3.49,3.49,0,0,1,1-2.62,3.59,3.59,0,0,1,2.59-1A3.55,3.55,0,0,1,424.71,638.38Z"/><path class="cls-1" d="M457.1,670.1a3.68,3.68,0,0,1,.89,2.55,3.19,3.19,0,0,1-1.17,2.55,4.49,4.49,0,0,1-3,1h-1.27a11.67,11.67,0,0,1-6.34-1.8,12.72,12.72,0,0,1-4.5-4.92,15,15,0,0,1-1.63-7V645h-3.25a3.44,3.44,0,0,1-2.41-.85,2.77,2.77,0,0,1-.92-2.13,2.9,2.9,0,0,1,.92-2.26,3.4,3.4,0,0,1,2.41-.85h3.25v-10.2a3.54,3.54,0,1,1,7.08,0v10.2h6a3.4,3.4,0,0,1,2.41.85,2.93,2.93,0,0,1,.92,2.26,2.8,2.8,0,0,1-.92,2.13,3.44,3.44,0,0,1-2.41.85h-6v17.49a7.27,7.27,0,0,0,1.56,4.74,4.77,4.77,0,0,0,3.83,1.91h2.4A2.79,2.79,0,0,1,457.1,670.1Z"/><path class="cls-1" d="M474.27,674a17.82,17.82,0,0,1-6.94-7,22.13,22.13,0,0,1,0-20.32,17.84,17.84,0,0,1,6.94-7,20.35,20.35,0,0,1,10.13-2.51,20,20,0,0,1,10,2.51,18.11,18.11,0,0,1,6.94,7,21.93,21.93,0,0,1,0,20.32,17.79,17.79,0,0,1-6.9,7,20,20,0,0,1-10.09,2.52A20.25,20.25,0,0,1,474.27,674Zm16.61-5.56a11.7,11.7,0,0,0,4.46-4.71,14.37,14.37,0,0,0,1.59-6.83,14.62,14.62,0,0,0-1.59-6.87,11.66,11.66,0,0,0-4.46-4.74,13.2,13.2,0,0,0-13,0,12,12,0,0,0-4.5,4.74,14.4,14.4,0,0,0-1.63,6.87,14.16,14.16,0,0,0,1.63,6.83,12,12,0,0,0,4.5,4.71,13.2,13.2,0,0,0,13,0Z"/><path class="cls-1" d="M571.42,621.88a3.55,3.55,0,0,1,1,2.62v32.29a19.78,19.78,0,0,1-2.58,10,19.05,19.05,0,0,1-7,7.08,19.28,19.28,0,0,1-9.88,2.59,19.64,19.64,0,0,1-10-2.59,18.58,18.58,0,0,1-7-7.08,20.06,20.06,0,0,1-2.54-10,21.17,21.17,0,0,1,2.37-10,17.85,17.85,0,0,1,6.51-7,17.68,17.68,0,0,1,22.91,3.89V624.5a3.49,3.49,0,0,1,1-2.62,3.59,3.59,0,0,1,2.59-1A3.55,3.55,0,0,1,571.42,621.88Zm-12.07,46.49a12.17,12.17,0,0,0,4.49-4.78,14.15,14.15,0,0,0,1.63-6.8,13.94,13.94,0,0,0-1.63-6.76,12.49,12.49,0,0,0-17.31-4.74A12.44,12.44,0,0,0,542,650a13.74,13.74,0,0,0-1.67,6.76,14,14,0,0,0,1.67,6.8,12.48,12.48,0,0,0,4.53,4.78,12.74,12.74,0,0,0,12.82,0Z"/><path class="cls-1" d="M592.59,674a17.69,17.69,0,0,1-6.94-7,22.05,22.05,0,0,1,0-20.32,17.71,17.71,0,0,1,6.94-7,20.31,20.31,0,0,1,10.12-2.51,20,20,0,0,1,10,2.51,18,18,0,0,1,6.94,7,21.9,21.9,0,0,1,0,20.32,17.88,17.88,0,0,1-6.91,7,21.52,21.52,0,0,1-20.21,0Zm16.6-5.56a11.7,11.7,0,0,0,4.46-4.71,14.26,14.26,0,0,0,1.6-6.83,14.5,14.5,0,0,0-1.6-6.87,11.66,11.66,0,0,0-4.46-4.74,13.18,13.18,0,0,0-13,0,11.82,11.82,0,0,0-4.5,4.74,14.29,14.29,0,0,0-1.63,6.87,14,14,0,0,0,1.63,6.83,11.87,11.87,0,0,0,4.5,4.71,13.18,13.18,0,0,0,13,0Z"/><path class="cls-1" d="M655.46,675.13a3.59,3.59,0,0,1-1.06-2.62V624.57a3.55,3.55,0,0,1,1.06-2.65,3.62,3.62,0,0,1,2.62-1H675a18.28,18.28,0,0,1,8.42,1.88A14.21,14.21,0,0,1,689.2,628a14.06,14.06,0,0,1,2.09,7.61,10.83,10.83,0,0,1-1.87,6.23,13.83,13.83,0,0,1-5.14,4.46,13.42,13.42,0,0,1,7.58,4.53,13.28,13.28,0,0,1,2.76,8.64,16.47,16.47,0,0,1-2.3,8.64,15.77,15.77,0,0,1-6.44,6,20.38,20.38,0,0,1-9.39,2.12H658.08A3.57,3.57,0,0,1,655.46,675.13ZM675,643.62a10.26,10.26,0,0,0,6.69-2,7.25,7.25,0,0,0,2.51-6,7.13,7.13,0,0,0-2.51-5.91,10.36,10.36,0,0,0-6.69-2H661.77v15.93Zm1.48,25.77a12,12,0,0,0,8-2.58,9.1,9.1,0,0,0,3-7.33,8,8,0,0,0-3-6.72,12.75,12.75,0,0,0-8-2.34H661.77v19Z"/><path class="cls-1" d="M738.73,658.45a3.18,3.18,0,0,1-2.33.89H709.49a12.46,12.46,0,0,0,4.5,8,14.35,14.35,0,0,0,13.52,2.27,13.41,13.41,0,0,0,3.79-1.91,3.66,3.66,0,0,1,2.33-.78,3.06,3.06,0,0,1,2.13.7A3.1,3.1,0,0,1,737,670a2.56,2.56,0,0,1-1.13,2.13,19.59,19.59,0,0,1-6,3.11,21.52,21.52,0,0,1-6.84,1.21,21.26,21.26,0,0,1-10.4-2.52,18.2,18.2,0,0,1-7.19-7,19.88,19.88,0,0,1-2.59-10.13,20.94,20.94,0,0,1,2.45-10.16,17.64,17.64,0,0,1,6.8-7,19.42,19.42,0,0,1,9.87-2.51,17.83,17.83,0,0,1,9.42,2.4,16,16,0,0,1,6.09,6.73,22.15,22.15,0,0,1,2.12,9.91A2.93,2.93,0,0,1,738.73,658.45Zm-25.1-12.35a12.71,12.71,0,0,0-4.07,7.58h23.58a12.6,12.6,0,0,0-3.54-7.58,10.39,10.39,0,0,0-7.58-2.83A12.24,12.24,0,0,0,713.63,646.1Z"/><path class="cls-1" d="M799.52,641.14q3.78,4,3.79,11.26v20.25a3.59,3.59,0,0,1-1,2.59,3.63,3.63,0,0,1-6.23-2.59V652.4q0-4.32-2.16-6.55a7.66,7.66,0,0,0-5.77-2.23,7.91,7.91,0,0,0-6.06,2.55,9.19,9.19,0,0,0-2.37,6.51v20a3.59,3.59,0,0,1-1,2.59,3.49,3.49,0,0,1-2.62,1,3.49,3.49,0,0,1-3.61-3.61V652.4q0-4.32-2.16-6.55a7.66,7.66,0,0,0-5.77-2.23,8,8,0,0,0-6.13,2.55,9.19,9.19,0,0,0-2.37,6.51v20a3.59,3.59,0,0,1-1,2.59,3.49,3.49,0,0,1-2.62,1,3.49,3.49,0,0,1-3.61-3.61V641.14a3.49,3.49,0,0,1,1-2.62,3.59,3.59,0,0,1,2.59-1,3.51,3.51,0,0,1,2.55,1,3.56,3.56,0,0,1,1.06,2.51,13.06,13.06,0,0,1,4.39-2.87,14.73,14.73,0,0,1,5.52-1,14.11,14.11,0,0,1,6.48,1.45,12.51,12.51,0,0,1,4.71,4.14,14.79,14.79,0,0,1,5.31-4.11,16.53,16.53,0,0,1,7.08-1.48A13,13,0,0,1,799.52,641.14Z"/><path class="cls-1" d="M371.1,379.83c-9.74-8.92-23.57-14.34-41.13-16.09-15.07-1.54-25.62-4.73-31.33-9.5s-8.4-10.38-8.4-17.34c0-7.44,3-13,9.27-16.87,6.43-4,15-6.08,25.53-6.08,8.54,0,15.66,1.62,21.17,4.82a39.19,39.19,0,0,1,13.87,14.08,12.85,12.85,0,0,0,5,5.09,13.67,13.67,0,0,0,6.95,1.87,12.13,12.13,0,0,0,6.65-1.84,10.9,10.9,0,0,0,5.09-9.26,16.5,16.5,0,0,0-2.87-8.73,66.61,66.61,0,0,0-22.16-22.15c-8.73-5.17-19.55-7.8-32.18-7.8a86.8,86.8,0,0,0-31.36,5.41c-9.39,3.62-16.91,9-22.33,15.87a39.35,39.35,0,0,0-8.25,24.94c0,13.58,5.36,25,15.94,34s24.91,14.3,43,16c12.46,1.25,21.82,4.67,27.82,10.19s8.89,11.94,8.89,19.66c0,8-3.4,14.2-10.39,18.84s-16,7.13-26.35,7.13a53.11,53.11,0,0,1-24.38-5.62c-7.21-3.67-12.07-8.16-14.46-13.32a14.22,14.22,0,0,0-5.3-6.3,13.73,13.73,0,0,0-7.58-2.34,9.66,9.66,0,0,0-2.61.27,14,14,0,0,0-7.33,3.85,9.81,9.81,0,0,0-2.88,7,13.36,13.36,0,0,0,1.22,5c4.46,10.53,12.66,19.17,24.4,25.66a79.28,79.28,0,0,0,38.92,9.71,82.63,82.63,0,0,0,30.51-5.62,52.7,52.7,0,0,0,23.09-17.19c5.82-7.69,8.77-17,8.77-27.71C385.91,400.86,380.93,388.84,371.1,379.83Z"/><path class="cls-1" d="M429.33,342.39a12.63,12.63,0,0,0-9.13,3.54,12.35,12.35,0,0,0-3.69,9.28V451.1a13,13,0,0,0,22.11,9.14,12.71,12.71,0,0,0,3.53-9.14V355.21a12.2,12.2,0,0,0-12.82-12.82Z"/><path class="cls-1" d="M450.66,281.2a12.4,12.4,0,0,0-9.05,3.77l-21.17,21.17a12.23,12.23,0,0,0-3.07,8.57,12.68,12.68,0,0,0,3.53,9.13,12.37,12.37,0,0,0,9.29,3.68A12,12,0,0,0,439,324l20.85-20.85a11.6,11.6,0,0,0,3.6-8.88,12.84,12.84,0,0,0-3.64-9.25A12.31,12.31,0,0,0,450.66,281.2Z"/><path class="cls-1" d="M539.4,442.34a10.28,10.28,0,0,0-7.94-3.63h-7.32a12.63,12.63,0,0,1-10.22-5.14,20.44,20.44,0,0,1-4.33-13.28v-51.4h16.48a12.18,12.18,0,0,0,8.57-3.07A10.22,10.22,0,0,0,538,358a10.72,10.72,0,0,0-3.39-8.24,12.19,12.19,0,0,0-8.57-3.08H509.59V317.51a12.61,12.61,0,1,0-25.21,0V346.7H476.3a12.19,12.19,0,0,0-8.57,3.08,10.71,10.71,0,0,0-3.39,8.24,10.21,10.21,0,0,0,3.39,7.8,12.18,12.18,0,0,0,8.57,3.07h8.08v51.4a47.32,47.32,0,0,0,5.17,22.18,40.15,40.15,0,0,0,14.33,15.67,37.43,37.43,0,0,0,20.26,5.78H528a15.51,15.51,0,0,0,10.35-3.45,11.55,11.55,0,0,0,4.2-9.16,13.06,13.06,0,0,0-3.16-9Z"/><path class="cls-1" d="M580.8,294.78a16,16,0,0,0-11.31,27.36h0a16,16,0,1,0,11.31-27.36Z"/><path class="cls-1" d="M580.8,342.39a12.65,12.65,0,0,0-9.13,3.54,12.35,12.35,0,0,0-3.69,9.28V451.1a12.51,12.51,0,0,0,12.82,12.82,12.39,12.39,0,0,0,9.29-3.68,12.71,12.71,0,0,0,3.53-9.14V355.21a12.2,12.2,0,0,0-12.82-12.82Z"/><path class="cls-1" d="M175.31,502.84a42.75,42.75,0,0,0,12.46-11.95,35,35,0,0,0,6-20,44.59,44.59,0,0,0-24.91-40.74,57.82,57.82,0,0,0-26.48-5.91H90.91a12.84,12.84,0,0,0-9.25,3.64,12.56,12.56,0,0,0-3.79,9.39V583.16a12.63,12.63,0,0,0,3.77,9.26h0a12.65,12.65,0,0,0,9.27,3.76h56a63.76,63.76,0,0,0,29.38-6.66,49.8,49.8,0,0,0,20.34-18.79,51.92,51.92,0,0,0,7.27-27.23c0-11-3-20.24-8.81-27.44A41.44,41.44,0,0,0,175.31,502.84Zm-5.22,61.58c-5.8,4.93-13.6,7.43-23.16,7.43h-43V517.76h43c9.73,0,17.58,2.26,23.33,6.73s8.45,10.64,8.45,19C178.71,552.66,175.89,559.49,170.09,564.42Zm-66.15-71V448.59H142.4c8,0,14.48,1.94,19.22,5.74s7,9.18,7,16.57-2.29,12.84-7,16.68-11.2,5.84-19.21,5.84Z"/><path class="cls-1" d="M317.75,481.92h0a60.63,60.63,0,0,0-31-8.11,61.77,61.77,0,0,0-31.19,8.11,58.8,58.8,0,0,0-22.12,22.23,62.87,62.87,0,0,0-8,31.39,66.38,66.38,0,0,0,7.43,31.34A56.51,56.51,0,0,0,253.38,589a55.66,55.66,0,0,0,68.84-8.6v3.16a12.82,12.82,0,1,0,25.63,0V535.54a62.07,62.07,0,0,0-8.11-31.4A60.1,60.1,0,0,0,317.75,481.92Zm-49.53,20a35.67,35.67,0,0,1,50.12,13.84,41.6,41.6,0,0,1,4.74,19.82,41,41,0,0,1-4.74,19.71,35.64,35.64,0,0,1-13,13.74h0a36.85,36.85,0,0,1-37.1,0,36.44,36.44,0,0,1-13.14-13.76,40.14,40.14,0,0,1-4.84-19.69,40.83,40.83,0,0,1,4.84-19.81A36.12,36.12,0,0,1,268.22,501.88Z"/><path class="cls-1" d="M455.27,477h0c-4.56-2.43-10.86-3.66-18.74-3.66a50.38,50.38,0,0,0-21,4.47,48.17,48.17,0,0,0-13.36,8.94c-.17-7.93-4.52-12.12-12.6-12.12-3.94,0-7.06,1.12-9.27,3.34s-3.34,5.33-3.34,9.26v96.32c0,4.09,1.13,7.26,3.36,9.4s5.32,3.2,9.25,3.2c4.09,0,7.25-1.13,9.4-3.36s3.2-5.32,3.2-9.24V520.67c0-7.5,2.86-13.3,8.75-17.71s14-6.75,23.9-6.75a83.18,83.18,0,0,1,13.64,1.48,19.56,19.56,0,0,0,3.59.46c5.28,0,8.87-2.84,10.36-8.15a9,9,0,0,0,.31-2.73C462.7,483.11,460.2,479.67,455.27,477Z"/><path class="cls-1" d="M560,477h0c-4.56-2.43-10.87-3.66-18.74-3.66a50.38,50.38,0,0,0-21,4.47,48.37,48.37,0,0,0-13.37,8.94c-.16-7.93-4.51-12.12-12.59-12.12-3.94,0-7.06,1.12-9.27,3.34s-3.34,5.33-3.34,9.26v96.32c0,4.09,1.13,7.26,3.36,9.4s5.32,3.2,9.25,3.2c4.09,0,7.25-1.13,9.39-3.36s3.21-5.32,3.21-9.24V520.67c0-7.5,2.86-13.3,8.75-17.71s14-6.75,23.89-6.75a83.17,83.17,0,0,1,13.65,1.48,19.56,19.56,0,0,0,3.59.46c5.28,0,8.87-2.84,10.36-8.15a9,9,0,0,0,.31-2.73C567.42,483.11,564.92,479.67,560,477Z"/><path class="cls-1" d="M661.34,481.4c-8.3-5-18.26-7.59-29.6-7.59a61.11,61.11,0,0,0-31,7.89,55.86,55.86,0,0,0-21.38,22.05,65.81,65.81,0,0,0-7.65,31.79,62.42,62.42,0,0,0,8.11,31.73,57.47,57.47,0,0,0,22.58,21.91,67.57,67.57,0,0,0,53.92,4.12,61.57,61.57,0,0,0,18.73-9.76,9.57,9.57,0,0,0,4.18-7.92c0-3.29-1.53-6.23-4.48-8.69a11.11,11.11,0,0,0-7.7-2.62,13,13,0,0,0-8.22,2.74,38.42,38.42,0,0,1-11,5.54A40.24,40.24,0,0,1,635,574.86c-10.44,0-19.36-3-26.53-8.85a36,36,0,0,1-12.65-21.1h79.69a11.68,11.68,0,0,0,8.38-3.2,10.85,10.85,0,0,0,3.36-8.11c0-11.58-2.24-22-6.65-31A50.41,50.41,0,0,0,661.34,481.4ZM631.74,496c8.93,0,16.26,2.72,21.77,8.1,5.14,5,8.47,11.7,9.92,19.91H596.05a36.46,36.46,0,0,1,11.36-19.85C613.57,498.75,621.76,496,631.74,496Z"/><path class="cls-1" d="M713.22,456.42a18.68,18.68,0,0,1-1.67-24.73,33.41,33.41,0,0,1-6.6,5.12,38.32,38.32,0,0,1-37.57,0,34.78,34.78,0,0,1-13-13.62,41.28,41.28,0,0,1-4.74-19.93,42,42,0,0,1,4.74-20,34.69,34.69,0,0,1,13-13.73,38.39,38.39,0,0,1,37.57,0,33.94,33.94,0,0,1,12.88,13.71,42.79,42.79,0,0,1,4.64,20.05,42.23,42.23,0,0,1-4.63,19.94,35.7,35.7,0,0,1-4,6,18.68,18.68,0,0,1,26,.55,21.44,21.44,0,0,1,1.44,1.62,65.65,65.65,0,0,0,6-28.14c0-11.89-2.65-22.63-7.88-31.92a57.2,57.2,0,0,0-21.81-21.92,62.78,62.78,0,0,0-31.39-7.89,63.82,63.82,0,0,0-31.72,7.89,56,56,0,0,0-21.81,21.93c-5.16,9.28-7.77,20-7.77,31.91A64.43,64.43,0,0,0,632.64,435a56.05,56.05,0,0,0,21.81,21.92,67.78,67.78,0,0,0,60.85,1.32A20.33,20.33,0,0,1,713.22,456.42Z"/><path class="cls-1" d="M726.54,474.67a12.71,12.71,0,0,0-9.14,3.53,12.4,12.4,0,0,0-3.68,9.29v95.88a13,13,0,0,0,22.11,9.14,12.69,12.69,0,0,0,3.53-9.14V487.49a12.18,12.18,0,0,0-12.82-12.82Z"/><path class="cls-1" d="M855,477h0c-4.56-2.43-10.87-3.66-18.75-3.66a50.45,50.45,0,0,0-21,4.47,48.17,48.17,0,0,0-13.36,8.94c-.17-7.93-4.52-12.12-12.6-12.12-3.93,0-7,1.12-9.26,3.34s-3.34,5.33-3.34,9.26v96.32c0,4.09,1.13,7.26,3.36,9.4s5.32,3.2,9.24,3.2c4.09,0,7.25-1.13,9.4-3.36s3.2-5.32,3.2-9.24V520.67A20.83,20.83,0,0,1,810.59,503c6-4.48,14-6.75,23.9-6.75a83.07,83.07,0,0,1,13.64,1.48,19.65,19.65,0,0,0,3.6.46c5.28,0,8.87-2.84,10.36-8.15a9.38,9.38,0,0,0,.3-2.73C862.39,483.11,859.89,479.67,855,477Z"/><path class="cls-1" d="M959,481.92a60.66,60.66,0,0,0-31-8.11,61.73,61.73,0,0,0-31.18,8.11,58.66,58.66,0,0,0-22.12,22.23,62.77,62.77,0,0,0-8,31.39,66.38,66.38,0,0,0,7.43,31.34A56.61,56.61,0,0,0,894.62,589a55.63,55.63,0,0,0,68.83-8.6v3.16a12.82,12.82,0,1,0,25.64,0V535.54a62.17,62.17,0,0,0-8.11-31.4A60.1,60.1,0,0,0,959,481.92Zm-49.54,20a35.66,35.66,0,0,1,50.12,13.84,41.49,41.49,0,0,1,4.74,19.82,41,41,0,0,1-4.73,19.71,35.78,35.78,0,0,1-13,13.74h0a36.87,36.87,0,0,1-37.11,0,36.41,36.41,0,0,1-13.13-13.76,40.14,40.14,0,0,1-4.84-19.69,40.8,40.8,0,0,1,4.84-19.81A36.17,36.17,0,0,1,909.45,501.88Z"/><path class="cls-1" d="M1100.6,536.74c-6.74-5.79-18.22-10.34-34.11-13.55a103.11,103.11,0,0,1-17.13-4.75c-3.69-1.51-6.18-3.12-7.41-4.78a9.93,9.93,0,0,1-1.8-6.13c0-3.32,1.76-5.85,5.38-7.76,4-2.07,9.14-3.13,15.42-3.13a44.44,44.44,0,0,1,14.06,1.95,30.6,30.6,0,0,1,10.78,6.63,16.57,16.57,0,0,0,11.36,4.57,11.78,11.78,0,0,0,7.11-2.08l.08-.06c2.88-2.37,4.33-5.09,4.33-8.09a12.8,12.8,0,0,0-3.2-8.05,44.89,44.89,0,0,0-18.3-13,68.12,68.12,0,0,0-25.79-4.66,65.05,65.05,0,0,0-22.17,3.77,40.08,40.08,0,0,0-17.15,11.52,28.54,28.54,0,0,0-6.68,19.07c0,18.31,14.42,30.37,42.86,35.85,10.34,2,17.73,4.37,22,7.16,4,2.61,5.86,5.74,5.86,9.57s-1.93,7-5.9,9.42c-4.21,2.54-10.31,3.83-18.12,3.83a44.26,44.26,0,0,1-16.77-3.2c-5.17-2.11-9.08-4.6-11.61-7.4l-.07-.07c-2.92-2.93-6.11-4.41-9.48-4.41-2.68,0-5.59,1.13-8.63,3.38a11.83,11.83,0,0,0-5.05,9.87,10.93,10.93,0,0,0,3.34,8c5,5.06,12.1,9.19,20.94,12.29a85.17,85.17,0,0,0,28.19,4.63c10,0,18.68-1.62,25.84-4.8s12.85-7.71,16.62-13.37a33.66,33.66,0,0,0,5.7-19C1111.05,550.46,1107.53,542.68,1100.6,536.74Z"/><path class="cls-1" d="M1031,187.1C997.3,110.79,939,51.54,905,31.45,847.8-3.44,778.37-7.16,799.57,9.8c36,28.8,10.38,65.91,48.21,100.31,9.39,8.73,20.44,21.64,24.3,24.1,13,8.25,42.41-1.83,78,.73,21.17,1.7,21.64,5.59.65,4.5-32.77-1.52-67.94,6.08-61.84,14.87,3.63,5.16,8,12.2,12.75,20.22a432.2,432.2,0,0,1,46.08,48.69q8.73,10.5,16.67,21.49a241.2,241.2,0,0,1,30.29,3.46c20,4.06,18.4,6.19-4.51,3.64q-12.27-1.27-21.69-1.36c19.37,27.79,34.8,57.46,45.26,87.23,11.1,31.61,15.93,62.05,14.44,89.66a70.32,70.32,0,0,0,10.16-13.06c37.6-59.79,27.48-152-7.3-227.18"/><path class="cls-1" d="M918.29,306.25c-31.07,4.77-47.81,11.58-46.7,23,1,7.39,19.51,44.8,26.12,67.36,10.75,38,30.49,51.25,48.16,57.08,11.44,3.78,22,4.43,28.73,6.65,3.79,1.25,6.35,3,7.14,6.08,2.46,13.24,6.8,20.33,11.66,21.93,7.17,2.37,15.47-7.22,20.48-26.59,19-71.78-18.4-164.61-74.86-233.3-54.39-68.45-126.93-113.91-166.89-127.1-1-.33-2-.64-2.92-.92-66.37-21.11-135.45-6.71-109.65,5.28,43.85,20.35,29.81,65.51,77.11,91.19,11.79,6.57,26.46,17,31,18.56l.11,0c15.18,5,41-13.1,76.45-19.78,8.93-1.6,14.38-1.84,16.17-1.25,2.46.81-2.08,3.2-14.18,5.74-32.55,7-64.72,24.15-56.12,31.65,17.07,14.71,49,48.78,67.67,73A9.27,9.27,0,0,0,862.3,308c10.83,3.58,33.19-5.21,59.32-6.73,8-.41,12.76-.27,14.31.24,2.5.83-3.33,2.63-17.64,4.71"/><path class="cls-1" d="M554.45,232.77c-6.77-9-11.81-13.66-20.14-21.84a221.3,221.3,0,0,0-40.64-31.34c-2.92-1.76-6-3.48-9.21-5.19-4.89-2.59-10.17-5.13-16-7.69a215.54,215.54,0,0,0-27.93-9.78l-2.46-.66c-1.61-.44-3.23-.88-4.86-1.27l-8.4-1.85c-4.67-.86-9.5-1.76-14.29-2.34s-9.23-1.08-14.06-1.5l-1.64-.14c-5.71-.35-10.89-.51-15.75-.49l-9.29.1c-.77,0-1.55,0-2.41.07l-4.12.19c-5.43.24-10.65.65-16,1.24a286.37,286.37,0,0,0-32,5.3,241,241,0,0,0-61.28,23c-5.31,2.83-10.36,5.93-14.17,8.31-5.2,3.41-9.45,6.37-13.29,9.29a212.63,212.63,0,0,0-24.15,21A226.24,226.24,0,0,0,166,265.31a250.19,250.19,0,0,0-12.32,24.92c-3.49,8.37-6.46,16.52-8.83,24.22-2.5,8.3-4.44,15.75-5.91,22.76-1.6,7.75-2.76,14.54-3.56,20.74a110.19,110.19,0,0,0-1.1,19.55,44.27,44.27,0,0,0,.41,5.73,4.72,4.72,0,0,0,3,3.77c4,1.08,11.14-.81,16.31-6.69,5.92-6.73,6.35-16.94,7.65-28.17q.31-2.77.67-5.63l.18-1.41c4.36-34.61,9.3-73.84,97.43-134.67l1.36-1c17-11.83,56.91-39.54,153.3-29.39,59.16,6.23,97.68,40.23,120.56,70.88,8.66,8.11,13.46,4,18.74,1,10.73-6.1-2-17.39.6-19.22"/><path class="cls-1" d="M88.51,275.62a264.85,264.85,0,0,1,34.11,12c4,1.69,9,2.81,8.21,9.06s-5.39,7.85-10.38,9.5c-6.4,2.11-11.39.56-18.09-.41-14.6-2.12-51.32-11.93-78.14-20.58-4-1.29-14.78-7.26-18.25-9.69-3.78-2.65-7.87-5.79-5-11,2.71-5,13.74-5.23,19.42-3.52,13.65,1.3,43.75,8.15,68.13,14.67"/><path class="cls-1" d="M302.51,126.17c-3.26-3.11-7.38-9.64-9-13-9.6-19.17-16.28-51.55-19.28-71.49-.08-.53-.47-1-.45-1.55.19-5.38-6.11-35.11.17-37,5.81-1.76,11.48,2,14.75,7.59,11.76,20.16,31.82,76,35.38,96.75,1.56,5.36.3,10.87-4.71,18.45-3.52,5.32-11.91,4.16-16.82.22"/><path class="cls-1" d="M188.38,163.42c6.38,5.9,10.39,13.28,10.7,22.1.24,6.66-.33,10.29-9.57,7-37.25-13.23-68.29-46.34-87.22-77.08-2.36-3.82-4.53-9,.74-13.44,6-5,13.18.48,17.49,4,5,4.09,59.62,49.78,67.86,57.41"/><path class="cls-1" d="M542,187.08a24.86,24.86,0,0,1,5.42-14.85c15.06-18.3,57.93-58.7,78.52-72.18,2.5-1.64,6.86-3.18,10.43-.16,4.42,3.75,1.62,8.33.12,10.7-23.76,37.56-45.6,60.69-73.94,86.25-3.88,3.51-12.14,8.58-16.5,6.12-4.69-2.63-4.07-9.58-4-15.88"/><path class="cls-1" d="M471.43,1.85c3.31,1.15,2.82,3.86,2.8,6.06C474,33.5,465.26,87.1,453,122.29c-2.15,6.2-7.83,9.69-16.33,9.21-6.85-.39-7.46-4.71-7-10.63C433,80,443.67,34,456.45,9.91c2.35-4.43,5.82-10.07,12.86-8.41,1,.23,2,.32,2.12.35"/><path class="cls-2" d="M726.54,427.05a16,16,0,0,0-11.31,27.36h0a16,16,0,1,0,11.31-27.37Z"/><path class="cls-3" d="M1031,187.1C997.3,110.79,939,51.54,905,31.45,847.8-3.44,778.37-7.16,799.57,9.8c36,28.8,10.38,65.91,48.21,100.31,9.39,8.73,20.44,21.64,24.3,24.1,13,8.25,42.41-1.83,78,.73,21.17,1.7,21.64,5.59.65,4.5-32.77-1.52-67.94,6.08-61.84,14.87,3.63,5.16,8,12.2,12.75,20.22a432.2,432.2,0,0,1,46.08,48.69q8.73,10.5,16.67,21.49a241.2,241.2,0,0,1,30.29,3.46c20,4.06,18.4,6.19-4.51,3.64q-12.27-1.27-21.69-1.36c19.37,27.79,34.8,57.46,45.26,87.23,11.1,31.61,15.93,62.05,14.44,89.66a70.32,70.32,0,0,0,10.16-13.06c37.6-59.79,27.48-152-7.3-227.18"/><path class="cls-4" d="M918.29,306.25c-31.07,4.77-47.81,11.58-46.7,23,1,7.39,19.51,44.8,26.12,67.36,10.75,38,30.49,51.25,48.16,57.08,11.44,3.78,22,4.43,28.73,6.65,3.79,1.25,6.35,3,7.14,6.08,2.46,13.24,6.8,20.33,11.66,21.93,7.17,2.37,15.47-7.22,20.48-26.59,19-71.78-18.4-164.61-74.86-233.3-54.39-68.45-126.93-113.91-166.89-127.1-1-.33-2-.64-2.92-.92-66.37-21.11-135.45-6.71-109.65,5.28,43.85,20.35,29.81,65.51,77.11,91.19,11.79,6.57,26.46,17,31,18.56l.11,0c15.18,5,41-13.1,76.45-19.78,8.93-1.6,14.38-1.84,16.17-1.25,2.46.81-2.08,3.2-14.18,5.74-32.55,7-64.72,24.15-56.12,31.65,17.07,14.71,49,48.78,67.67,73A9.27,9.27,0,0,0,862.3,308c10.83,3.58,33.19-5.21,59.32-6.73,8-.41,12.76-.27,14.31.24,2.5.83-3.33,2.63-17.64,4.71"/><path class="cls-5" d="M554.45,232.77c-6.77-9-11.81-13.66-20.14-21.84a221.3,221.3,0,0,0-40.64-31.34c-2.92-1.76-6-3.48-9.21-5.19-4.89-2.59-10.17-5.13-16-7.69a215.54,215.54,0,0,0-27.93-9.78l-2.46-.66c-1.61-.44-3.23-.88-4.86-1.27l-8.4-1.85c-4.67-.86-9.5-1.76-14.29-2.34s-9.23-1.08-14.06-1.5l-1.64-.14c-5.71-.35-10.89-.51-15.75-.49l-9.29.1c-.77,0-1.55,0-2.41.07l-4.12.19c-5.43.24-10.65.65-16,1.24a286.37,286.37,0,0,0-32,5.3,241,241,0,0,0-61.28,23c-5.31,2.83-10.36,5.93-14.17,8.31-5.2,3.41-9.45,6.37-13.29,9.29a212.63,212.63,0,0,0-24.15,21A226.24,226.24,0,0,0,166,265.31a250.19,250.19,0,0,0-12.32,24.92c-3.49,8.37-6.46,16.52-8.83,24.22-2.5,8.3-4.44,15.75-5.91,22.76-1.6,7.75-2.76,14.54-3.56,20.74a110.19,110.19,0,0,0-1.1,19.55,44.27,44.27,0,0,0,.41,5.73,4.72,4.72,0,0,0,3,3.77c4,1.08,11.14-.81,16.31-6.69,5.92-6.73,6.35-16.94,7.65-28.17q.31-2.77.67-5.63l.18-1.41c4.36-34.61,9.3-73.84,97.43-134.67l1.36-1c17-11.83,56.91-39.54,153.3-29.39,59.16,6.23,97.68,40.23,120.56,70.88,8.66,8.11,13.46,4,18.74,1,10.73-6.1-2-17.39.6-19.22"/><path class="cls-5" d="M88.51,275.62a264.85,264.85,0,0,1,34.11,12c4,1.69,9,2.81,8.21,9.06s-5.39,7.85-10.38,9.5c-6.4,2.11-11.39.56-18.09-.41-14.6-2.12-51.32-11.93-78.14-20.58-4-1.29-14.78-7.26-18.25-9.69-3.78-2.65-7.87-5.79-5-11,2.71-5,13.74-5.23,19.42-3.52,13.65,1.3,43.75,8.15,68.13,14.67"/><path class="cls-5" d="M302.51,126.17c-3.26-3.11-7.38-9.64-9-13-9.6-19.17-16.28-51.55-19.28-71.49-.08-.53-.47-1-.45-1.55.19-5.38-6.11-35.11.17-37,5.81-1.76,11.48,2,14.75,7.59,11.76,20.16,31.82,76,35.38,96.75,1.56,5.36.3,10.87-4.71,18.45-3.52,5.32-11.91,4.16-16.82.22"/><path class="cls-5" d="M188.38,163.42c6.38,5.9,10.39,13.28,10.7,22.1.24,6.66-.33,10.29-9.57,7-37.25-13.23-68.29-46.34-87.22-77.08-2.36-3.82-4.53-9,.74-13.44,6-5,13.18.48,17.49,4,5,4.09,59.62,49.78,67.86,57.41"/><path class="cls-5" d="M542,187.08a24.86,24.86,0,0,1,5.42-14.85c15.06-18.3,57.93-58.7,78.52-72.18,2.5-1.64,6.86-3.18,10.43-.16,4.42,3.75,1.62,8.33.12,10.7-23.76,37.56-45.6,60.69-73.94,86.25-3.88,3.51-12.14,8.58-16.5,6.12-4.69-2.63-4.07-9.58-4-15.88"/><path class="cls-5" d="M471.43,1.85c3.31,1.15,2.82,3.86,2.8,6.06C474,33.5,465.26,87.1,453,122.29c-2.15,6.2-7.83,9.69-16.33,9.21-6.85-.39-7.46-4.71-7-10.63C433,80,443.67,34,456.45,9.91c2.35-4.43,5.82-10.07,12.86-8.41,1,.23,2,.32,2.12.35"/></g></g></svg>